# xmcd
# 
# Track frame offsets:
#     150
#     20210
#     33085
#     42830
#     53420
#     64107
#     78135
#     87890
#     98615
#     114887
#     127675
#     140512
#     154005
#     165000
#     178290
# 
# Disc length: 2534
# 
# Revision: 13
# Processed by: cddbd v1.5.2PL0 Copyright (c) Steve Scherf et al.
# Submitted via: fre:ac v1.0.31
# 
DISCID=a509e40f
DTITLE=Various Artist - Classic Country - TL 626-05 - 1960 - 1964 - CD 2
DYEAR=1999
DGENRE=Country
TTITLE0=Marty Robbins - El Paso
TTITLE1=Patsy Cline - I fall to pieces
TTITLE2=Ned Miller - From a Jack to a king
TTITLE3=Jim Reeves - He'll have to go
TTITLE4=Floyd Cramer - San Antonio Rose
TTITLE5=Rex Allen - Don't go near the indians
TTITLE6=Dave Dudley - Six days on the road
TTITLE7=Don Gibson - Lonesome number one
TTITLE8=Lorne Greene - Ringo
TTITLE9=Johnny Horton - North to Alaska
TTITLE10=Bobby Bare - Detroit City
TTITLE11=Claude King - Wolverton Mountain
TTITLE12=Faron Young - Hello walls
TTITLE13=Hank Locklin - Please help me, I'm falling
TTITLE14=Skeeter Davis - The end of the world
EXTD=
EXTT0=
EXTT1=
EXTT2=
EXTT3=
EXTT4=
EXTT5=
EXTT6=
EXTT7=
EXTT8=
EXTT9=
EXTT10=
EXTT11=
EXTT12=
EXTT13=
EXTT14=
PLAYORDER=
